<?xml version="1.0" encoding="UTF-8"?>
<!-- Created with Inkscape (http://www.inkscape.org/) -->
<svg width="82.437mm" height="84.504mm" version="1.1" viewBox="0 0 82.437 84.504" xmlns="http://www.w3.org/2000/svg" xmlns:xlink="http://www.w3.org/1999/xlink">
 <defs>
  <marker id="Triangle" overflow="visible" markerHeight="1" markerWidth="1" orient="auto-start-reverse" preserveAspectRatio="xMidYMid" viewBox="0 0 1 1">
   <path transform="scale(.5)" d="m5.77 0-8.65 5v-10z" fill="context-stroke" fill-rule="evenodd" stroke="context-stroke" stroke-width="1pt"/>
  </marker>
 </defs>
 <g transform="translate(-48.054 -6.5123)">
  <g fill="#959595">
   <path d="m79.276 37.945a8.4667 31.089 0 0 1 1.8353 33.88 8.4667 31.089 0 0 1-7.8222 19.191 8.4667 31.089 0 0 1-7.8222-19.191 8.4667 31.089 0 0 1 1.8353-33.88z"/>
   <path d="m48.253 13.074 19.05 24.871" stroke="#888" stroke-width=".5"/>
   <path id="path3" d="m98.326 13.074-19.05 24.871" fill="#959595" stroke="#888" stroke-width=".5"/>
  </g>
  <use transform="rotate(-17.226 77.257 49.068)" xlink:href="#path3"/>
  <path d="m55.686 9.6812 13.798 28.126" fill="#959595" stroke="#888" stroke-width=".5"/>
  <path d="m62.705 7.5473 8.2896 30.212" fill="#959595" stroke="#888" stroke-width=".5"/>
  <use transform="rotate(-5.8666 77.05 56.397)" xlink:href="#path3"/>
  <use transform="rotate(-27.32 76.391 49.027)" xlink:href="#path3"/>
  <g>
   <path d="m69.881 6.5376 3.171 31.167" fill="#959595" stroke="#888" stroke-width=".5"/>
   <text x="114.47877" y="66.073151" fill="#050000" font-family="Arial" font-size="4.9389px" stroke="#020000" stroke-width="0" xml:space="preserve"><tspan x="114.47877" y="66.073151" fill="#050000" font-family="Arial" font-size="4.9389px" stroke="#020000" stroke-width="0">achene</tspan></text>
   <text x="114.47877" y="28.502281" fill="#050000" font-family="Arial" font-size="4.9389px" stroke="#020000" stroke-width="0" xml:space="preserve"><tspan x="114.47877" y="28.502281" fill="#050000" font-family="Arial" font-size="4.9389px" stroke="#020000" stroke-width="0">pappus</tspan></text>
   <path d="m88.996 65.009 20.886-0.12554" marker-start="url(#Triangle)" stroke="#000" stroke-width=".42043"/>
   <path d="m90.584 27.967 20.886-0.12554" marker-start="url(#Triangle)" stroke="#000" stroke-width=".42043"/>
  </g>
 </g>
</svg>
